<svg xmlns="http://www.w3.org/2000/svg" width="16" height="16" viewBox="0 0 16 16" shape-rendering="crispEdges">
  <g fill="#3f3f46">
    <rect x="3" y="8" width="10" height="1"/>
    <rect x="7" y="4" width="2" height="2"/>
    <rect x="7" y="10" width="2" height="2"/>
  </g>
  <g fill="#09090b">
    <rect x="2" y="7" width="1" height="2"/>
    <rect x="13" y="7" width="1" height="2"/>
    <rect x="3" y="7" width="10" height="2"/>
    <rect x="6" y="3" width="1" height="1"/>
    <rect x="6" y="12" width="1" height="1"/>
    <rect x="7" y="2" width="2" height="1"/>
    <rect x="7" y="13" width="2" height="1"/>
    <rect x="8" y="1" width="1" height="1"/>
    <rect x="8" y="14" width="1" height="1"/>
  </g>
  <g fill="#fafafa">
    <rect x="3" y="7" width="10" height="2"/>
    <rect x="7" y="4" width="2" height="2"/>
    <rect x="7" y="10" width="2" height="2"/>
    <rect x="7" y="3" width="1" height="1"/>
    <rect x="7" y="12" width="1" height="1"/>
  </g>
</svg>
