<svg xmlns="http://www.w3.org/2000/svg" width="16" height="16" viewBox="0 0 16 16" shape-rendering="crispEdges">
  <g fill="#3f3f46">
    <rect x="6" y="2" width="3" height="1"/>
    <rect x="5" y="3" width="1" height="1"/>
    <rect x="9" y="3" width="1" height="1"/>
    <rect x="4" y="4" width="1" height="4"/>
    <rect x="10" y="4" width="1" height="4"/>
    <rect x="5" y="8" width="1" height="1"/>
    <rect x="9" y="8" width="1" height="1"/>
    <rect x="6" y="9" width="3" height="1"/>
    <rect x="7" y="10" width="1" height="1"/>
    <rect x="7" y="11" width="1" height="4"/>
    <rect x="6" y="15" width="3" height="1"/>
  </g>
  <g fill="#09090b">
    <rect x="5" y="1" width="5" height="1"/>
    <rect x="4" y="2" width="1" height="1"/>
    <rect x="10" y="2" width="1" height="1"/>
    <rect x="3" y="3" width="1" height="5"/>
    <rect x="11" y="3" width="1" height="5"/>
    <rect x="4" y="8" width="1" height="1"/>
    <rect x="10" y="8" width="1" height="1"/>
    <rect x="5" y="9" width="6" height="1"/>
    <rect x="6" y="10" width="4" height="1"/>
    <rect x="6" y="11" width="2" height="4"/>
    <rect x="5" y="15" width="4" height="1"/>
  </g>
  <g fill="#fafafa">
    <rect x="5" y="2" width="5" height="1"/>
    <rect x="4" y="3" width="1" height="1"/>
    <rect x="10" y="3" width="1" height="1"/>
    <rect x="4" y="4" width="1" height="4"/>
    <rect x="10" y="4" width="1" height="4"/>
    <rect x="5" y="8" width="1" height="1"/>
    <rect x="9" y="8" width="1" height="1"/>
    <rect x="6" y="9" width="3" height="1"/>
    <rect x="7" y="10" width="1" height="1"/>
    <rect x="7" y="11" width="1" height="4"/>
    <rect x="6" y="15" width="2" height="1"/>
  </g>
</svg>
